<!-- icon666.com - MILLIONS vector ICONS FREE -->
<svg viewBox="0 -0 500 500" xmlns="http://www.w3.org/2000/svg">
    <path d="m495.957031 337.4375c-9.210937-9.128906-21.359375-14.699219-34.289062-15.726562-12.914063 1.035156-25.050781 6.605468-34.253907 15.726562-9.210937 9.128906-21.359374 14.703125-34.289062 15.730469-12.921875-1.035157-25.0625-6.605469-34.273438-15.730469-9.210937-9.128906-21.359374-14.699219-34.285156-15.726562-12.917968 1.03125-25.054687 6.605468-34.257812 15.726562-9.226563 9.144531-21.398438 14.71875-34.351563 15.730469-12.925781-1.03125-25.074219-6.601563-34.289062-15.730469-9.207031-9.121094-21.347657-14.691406-34.269531-15.726562-12.921876 1.035156-25.0625 6.605468-34.273438 15.726562-9.207031 9.128906-21.347656 14.699219-34.273438 15.730469-12.925781-1.027344-25.074218-6.601563-34.285156-15.730469-9.214844-9.125-21.363281-14.695312-34.289062-15.726562-12.9375 1.019531-25.097656 6.59375-34.320313 15.726562"
          fill="#00e7f0"></path>
    <path d="m359.382812 337.4375c47.355469-55.09375 43.203126-137.644531-9.445312-187.707031-52.644531-50.066407-135.296875-50.066407-187.945312 0-52.648438 50.0625-56.800782 132.613281-9.441407 187.707031 0-.125.207031-.222656.300781-.351562l.417969.226562c9.164063-9.085938 21.261719-14.613281 34.128907-15.601562 12.921874 1.035156 25.0625 6.605468 34.269531 15.726562 9.214843 9.128906 21.363281 14.699219 34.289062 15.730469 12.929688-1.027344 25.078125-6.601563 34.289063-15.730469 9.203125-9.121094 21.335937-14.695312 34.253906-15.726562 12.875.988281 24.980469 6.519531 34.160156 15.601562l.417969-.226562c.078125.128906.207031.226562.304687.351562zm0 0"
          fill="#ffde55"></path>
    <path d="m427.347656 401.4375c-9.210937 9.128906-21.359375 14.703125-34.285156 15.730469-12.921875-1.035157-25.0625-6.605469-34.273438-15.730469-9.210937-9.128906-21.359374-14.699219-34.289062-15.726562-12.917969 1.03125-25.050781 6.605468-34.253906 15.726562-9.210938 9.128906-21.359375 14.703125-34.289063 15.730469-12.925781-1.03125-25.074219-6.601563-34.289062-15.730469-9.207031-9.121094-21.347657-14.691406-34.269531-15.726562-12.921876 1.035156-25.0625 6.605468-34.273438 15.726562-9.207031 9.128906-21.347656 14.699219-34.273438 15.730469-12.925781-1.027344-25.074218-6.601563-34.285156-15.730469"
          fill="#00e7f0"></path>
    <g fill="#00969b">
        <path d="m255.957031 80.382812c8.835938 0 16-7.164062 16-16v-48c0-8.835937-7.164062-16-16-16-8.835937 0-16 7.164063-16 16v48c0 8.835938 7.164063 16 16 16zm0 0"></path>
        <path d="m149.925781 97.085938c2.835938 4.992187 8.132813 8.078124 13.875 8.09375 5.738281.011718 11.046875-3.054688 13.90625-8.03125 2.859375-4.980469 2.832031-11.109376-.070312-16.0625l-24-41.597657c-2.835938-4.992187-8.132813-8.082031-13.875-8.09375-5.738281-.011719-11.046875 3.050781-13.90625 8.03125-2.859375 4.976563-2.835938 11.109375.070312 16.0625zm0 0"></path>
        <path d="m46.742188 146.429688 41.597656 24c7.660156 4.417968 17.445312 1.792968 21.867187-5.863282 4.417969-7.65625 1.792969-17.445312-5.867187-21.863281l-41.597656-24c-7.65625-4.417969-17.445313-1.792969-21.863282 5.863281-4.421875 7.65625-1.792968 17.445313 5.863282 21.863282zm0 0"></path>
        <path d="m23.621094 264.734375h48c8.835937 0 16-7.164063 16-16s-7.164063-16-16-16h-48c-8.835938 0-16 7.164063-16 16s7.164062 16 16 16zm0 0"></path>
        <path d="m424.324219 248.734375c0 8.835937 7.164062 16 16 16h48c8.835937 0 16-7.164063 16-16s-7.164063-16-16-16h-48c-8.835938 0-16 7.164063-16 16zm0 0"></path>
        <path d="m415.636719 172.542969c2.808593.003906 5.570312-.734375 8-2.144531l41.601562-24c7.65625-4.417969 10.28125-14.207032 5.863281-21.863282-4.417968-7.65625-14.207031-10.28125-21.863281-5.863281l-41.601562 24c-6.269531 3.621094-9.328125 11-7.453125 17.996094 1.875 6.996093 8.210937 11.859375 15.453125 11.859375zm0 0"></path>
        <path d="m340.148438 102.894531c7.652343 4.417969 17.4375 1.796875 21.855468-5.855469l24-41.601562c4.347656-7.644531 1.710938-17.367188-5.90625-21.761719-7.617187-4.398437-17.355468-1.824219-21.804687 5.761719l-24 41.601562c-4.417969 7.652344-1.796875 17.4375 5.855469 21.855469zm0 0"></path>
        <path d="m27.476562 348.621094c6.171876-6.085938 14.207032-9.925782 22.816407-10.910156 8.621093.945312 16.664062 4.785156 22.816406 10.894531 12.179687 12.277343 28.476563 19.601562 45.742187 20.5625 17.257813-.96875 33.546876-8.285157 45.730469-20.546875.078125-.09375.367188-.300782.464844-.414063.671875-.640625 1.597656-1.441406 2.734375-2.335937 1.570312-1.203125 3.210938-2.316406 4.910156-3.328125l.371094-.257813c1.933594-1.109375 3.957031-2.054687 6.046875-2.832031.289063-.109375.527344-.269531.816406-.367187 2.398438-.863282 4.921875-1.328126 7.472657-1.375 8.625.953124 16.671874 4.800781 22.832031 10.910156 12.1875 12.253906 28.472656 19.570312 45.726562 20.546875 17.257813-.964844 33.546875-8.28125 45.726563-20.546875 6.175781-6.082032 14.207031-9.921875 22.816406-10.910156 8.628906.9375 16.683594 4.789062 22.832031 10.910156 12.191407 12.25 28.476563 19.566406 45.730469 20.546875 17.261719-.964844 33.554688-8.285157 45.742188-20.546875 6.171874-6.085938 14.207031-9.925782 22.816406-10.910156 8.648437.957031 16.714844 4.820312 22.878906 10.960937 6.214844 6.15625 16.21875 6.183594 22.464844.0625 6.246094-6.125 6.417968-16.128906.382812-22.464844-12.175781-12.269531-28.464844-19.59375-45.726562-20.558593-17.222656.972656-33.480469 8.265624-45.664063 20.480468-6.160156 6.15625-14.238281 10.027344-22.894531 10.976563-3.914062-.175781-7.742188-1.21875-11.203125-3.058594 43.199219-63.46875 32.414063-149.167969-25.167969-199.957031-57.578125-50.785156-143.953125-50.785156-201.535156 0-57.578125 50.789062-68.363281 136.488281-25.167969 199.957031-3.460937 1.839844-7.285156 2.882813-11.199219 3.058594-8.628906-.941407-16.679687-4.789063-22.832031-10.914063-12.191406-12.246094-28.472656-19.5625-45.726562-20.542968-17.230469.996093-33.492188 8.308593-45.664063 20.542968-6.1875 6.328125-6.070312 16.472656.253906 22.65625 6.328126 6.1875 16.472657 6.070313 22.65625-.253906zm228.480469-220.238282c44.355469-.039062 85.125 24.34375 106.078125 63.4375 20.953125 39.089844 18.6875 86.542969-5.902344 123.457032-6.914062-4.296875-14.570312-7.269532-22.574218-8.765625-2.992188-.53125-6.019532-.800781-9.058594-.800781-17.214844.976562-33.46875 8.269531-45.648438 20.480468-6.164062 6.148438-14.238281 10.019532-22.894531 10.976563-8.625-.953125-16.671875-4.800781-22.832031-10.914063-12.191406-12.246094-28.472656-19.5625-45.726562-20.542968-3.039063 0-6.066407.269531-9.058594.800781-1.9375.386719-3.851563.875-5.742188 1.453125-.847656.257812-1.761718.402344-2.59375.671875-2.144531.738281-4.246094 1.585937-6.300781 2.546875-.386719.175781-.816406.304687-1.203125.480468-2.269531 1.085938-4.367188 2.238282-6.398438 3.40625l-.207031.128907-.175781.078125c-24.609375-36.921875-26.878906-84.394532-5.90625-123.496094s61.773438-63.472656 106.144531-63.398438zm0 0"></path>
        <path d="m415.957031 390.191406c-6.160156 6.15625-14.238281 10.027344-22.894531 10.976563-8.621094-.945313-16.664062-4.789063-22.816406-10.898438-12.183594-12.269531-28.480469-19.59375-45.746094-20.558593-17.214844.976562-33.46875 8.269531-45.648438 20.480468-6.164062 6.148438-14.238281 10.019532-22.894531 10.976563-8.625-.953125-16.671875-4.800781-22.832031-10.914063-12.191406-12.246094-28.472656-19.5625-45.726562-20.542968-17.222657.972656-33.484376 8.265624-45.664063 20.480468-6.15625 6.152344-14.226563 10.023438-22.882813 10.976563-8.644531-.929688-16.71875-4.769531-22.894531-10.898438-6.183593-6.324219-16.328125-6.441406-22.65625-.253906-6.328125 6.183594-6.441406 16.328125-.253906 22.65625 12.179687 12.273437 28.476563 19.597656 45.742187 20.558594 17.257813-.964844 33.546876-8.285157 45.726563-20.542969 6.175781-6.082031 14.207031-9.925781 22.816406-10.914062 8.625.953124 16.675781 4.800781 22.832031 10.914062 12.214844 12.242188 28.523438 19.535156 45.792969 20.480469 17.257813-.964844 33.546875-8.28125 45.726563-20.546875 6.175781-6.082032 14.207031-9.921875 22.816406-10.910156 8.628906.9375 16.683594 4.789062 22.832031 10.910156 12.191407 12.25 28.476563 19.566406 45.730469 20.546875 17.265625-.960938 33.5625-8.285157 45.742188-20.5625 6.191406-6.308594 6.09375-16.441407-.214844-22.628907-6.308594-6.191406-16.441406-6.09375-22.632813.214844zm0 0"></path>
    </g>
</svg>
