<svg version="1.1" xmlns="http://www.w3.org/2000/svg" xmlns:xlink="http://www.w3.org/1999/xlink" x="0px" y="0px"
     viewBox="0 0 1500 350" style="enable-background:new 0 0 300 300;" xml:space="preserve">
    <g id="Objects">
	<g>
		<defs>
			<path id="SVGID_00000065063996701869210200000003424443354978238650_" d="M368.442,210.542c0,7.109-0.622,14.059-1.831,20.831
				c-1.671,9.455-4.479,18.538-8.247,27.069c-1.582,3.572-3.341,7.056-5.261,10.433c-20.351,35.884-58.901,60.11-103.104,60.11
				s-82.753-24.225-103.104-60.11c-1.902-3.377-3.661-6.861-5.243-10.433c-1.12-2.506-2.133-5.066-3.057-7.66
				c-2.275-6.238-4.035-12.726-5.208-19.409c-1.209-6.772-1.831-13.721-1.831-20.831c0-1.493,0.036-2.986,0.089-4.461
				C133.993,142.737,186.087,92.1,250,92.1c46.477,0,86.699,26.767,106.09,65.726c0.249,0.498,0.498,0.995,0.746,1.511
				c4.177,8.709,7.323,18.005,9.278,27.744c1.226,6.167,1.991,12.512,2.239,19C368.406,207.557,368.442,209.049,368.442,210.542z"/>
		</defs>
        <clipPath id="SVGID_00000075152227571845854620000005680657186151450005_">
			<use xlink:href="#SVGID_00000065063996701869210200000003424443354978238650_" style="overflow:visible;"/>
		</clipPath>
        <linearGradient id="SVGID_00000104667194257730132590000017171114178109631403_" gradientUnits="userSpaceOnUse"
                        x1="250" y1="255.2389" x2="250" y2="98.6005">
			<stop offset="0" style="stop-color:#F9D10F"/>
            <stop offset="0.2166" style="stop-color:#F8BE12"/>
            <stop offset="0.6524" style="stop-color:#F58E1A"/>
            <stop offset="1" style="stop-color:#F26321"/>
		</linearGradient>

        <path style="clip-path:url(#SVGID_00000075152227571845854620000005680657186151450005_);fill:url(#SVGID_00000104667194257730132590000017171114178109631403_);"
              d="
			M368.442,210.542c0,7.109-0.622,14.059-1.831,20.831c-1.671,9.455-4.479,18.538-8.247,27.069
			c-1.582,3.572-3.341,7.056-5.261,10.433c-20.351,35.884-58.901,60.11-103.104,60.11s-82.753-24.225-103.104-60.11
			c-1.902-3.377-3.661-6.861-5.243-10.433c-1.12-2.506-2.133-5.066-3.057-7.66c-2.275-6.238-4.035-12.726-5.208-19.409
			c-1.209-6.772-1.831-13.721-1.831-20.831c0-1.493,0.036-2.986,0.089-4.461C133.993,142.737,186.087,92.1,250,92.1
			c46.477,0,86.699,26.767,106.09,65.726c0.249,0.498,0.498,0.995,0.746,1.511c4.177,8.709,7.323,18.005,9.278,27.744
			c1.226,6.167,1.991,12.512,2.239,19C368.406,207.557,368.442,209.049,368.442,210.542z"/>
        <g style="clip-path:url(#SVGID_00000075152227571845854620000005680657186151450005_);">
			<path style="fill:#FFFFFF;" d="M214.791,206.704H90.304l7.644-1.09c1.798-0.256,3.48-1.252,4.329-2.858
				c1.133-2.145,3.372-3.601,5.955-3.601c2.392,0,4.498,1.251,5.705,3.116c1.448-3.489,4.871-5.925,8.865-5.925
				c0.922,0,1.799,0.176,2.633,0.417c2.458-7.176,9.238-12.333,17.248-12.333c8.295,0,15.295,5.574,17.489,13.166
				c0.746-0.263,1.536-0.417,2.392-0.417c3.731,0,6.803,2.721,7.395,6.298c0.593-0.505,1.317-0.812,2.129-0.812
				c1.273,0,2.348,0.702,2.896,1.756c0.9-2.107,2.963-3.577,5.377-3.577c1.18,0,2.273,0.351,3.187,0.955
				c3.887,2.568,8.589,3.611,13.24,3.876L214.791,206.704z"/>
            <path style="fill:#FFFFFF;" d="M249.676,132.664h-69.868l4.29-0.612c1.009-0.144,1.953-0.703,2.43-1.604
				c0.636-1.204,1.892-2.021,3.343-2.021c1.342,0,2.525,0.702,3.202,1.749c0.813-1.958,2.734-3.325,4.976-3.325
				c0.517,0,1.01,0.099,1.478,0.234c1.379-4.027,5.185-6.922,9.68-6.922c4.655,0,8.584,3.128,9.816,7.39
				c0.419-0.148,0.862-0.234,1.342-0.234c2.094,0,3.818,1.527,4.151,3.535c0.332-0.283,0.739-0.456,1.195-0.456
				c0.714,0,1.318,0.394,1.626,0.986c0.505-1.182,1.663-2.008,3.017-2.008c0.662,0,1.276,0.197,1.789,0.536
				c2.182,1.441,4.82,2.026,7.431,2.175L249.676,132.664z"/>
            <path style="fill:#FFFFFF;" d="M307.72,162.585h69.868l-4.29-0.612c-1.009-0.144-1.953-0.703-2.429-1.604
				c-0.636-1.204-1.892-2.021-3.343-2.021c-1.342,0-2.525,0.702-3.202,1.749c-0.813-1.958-2.734-3.325-4.976-3.325
				c-0.517,0-1.01,0.098-1.478,0.234c-1.379-4.027-5.185-6.922-9.68-6.922c-4.655,0-8.584,3.128-9.816,7.39
				c-0.419-0.148-0.862-0.234-1.343-0.234c-2.094,0-3.818,1.527-4.15,3.535c-0.332-0.283-0.739-0.456-1.195-0.456
				c-0.714,0-1.318,0.394-1.626,0.986c-0.505-1.183-1.663-2.008-3.018-2.008c-0.662,0-1.276,0.197-1.789,0.536
				c-2.182,1.441-4.82,2.027-7.431,2.176L307.72,162.585z"/>
		</g>
        <g style="clip-path:url(#SVGID_00000075152227571845854620000005680657186151450005_);">
			<path style="opacity:0.3;fill:#F9D10F;" d="M344.019,206.081c0,23.799-12.746,44.622-31.787,56.007
				c-9.78,5.864-21.224,9.232-33.451,9.232c-36.026,0-65.229-29.213-65.229-65.239s29.203-65.239,65.229-65.239
				c32.522,0,59.492,23.809,64.426,54.94C343.745,199.14,344.019,202.577,344.019,206.081z"/>
            <path style="opacity:0.3;fill:#F9D10F;" d="M318.878,206.081c0,14.627-7.834,27.424-19.536,34.422
				c-6.011,3.604-13.044,5.674-20.559,5.674c-22.141,0-40.089-17.954-40.089-40.095c0-22.141,17.948-40.095,40.089-40.095
				c19.987,0,36.564,14.633,39.596,33.766C318.71,201.815,318.878,203.927,318.878,206.081z"/>
            <path style="fill:#FFFFFF;" d="M296.447,206.081c0,6.443-3.451,12.081-8.606,15.163c-2.648,1.588-5.746,2.499-9.057,2.499
				c-9.753,0-17.66-7.909-17.66-17.663c0-9.754,7.906-17.663,17.66-17.663c8.805,0,16.107,6.446,17.443,14.874
				C296.373,204.202,296.447,205.133,296.447,206.081z"/>
		</g>
        <path style="clip-path:url(#SVGID_00000075152227571845854620000005680657186151450005_);fill:#4D4D4D;" d="M366.114,187.081
			c-0.036,6.896-0.658,13.65-1.831,20.244H283.29l5.954-11.073l16.778-3.715l7.003-12.495l14.787-2.666l8.673-16.138l19.604-3.413
			c0.249,0.498,0.498,0.995,0.746,1.511C361.013,168.046,364.159,177.342,366.114,187.081z"/>

        <linearGradient id="SVGID_00000136394803834293448650000014645313977830644393_" gradientUnits="userSpaceOnUse"
                        x1="250" y1="272.8034" x2="250" y2="198.0229">
			<stop offset="0" style="stop-color:#55FDE3"/>
            <stop offset="1" style="stop-color:#1274BF"/>
		</linearGradient>

        <path style="clip-path:url(#SVGID_00000075152227571845854620000005680657186151450005_);fill:url(#SVGID_00000136394803834293448650000014645313977830644393_);"
              d="
			M368.442,210.542c0,7.109-0.622,14.059-1.831,20.831c-1.671,9.455-4.479,18.538-8.247,27.069
			c-1.582,3.572-3.341,7.056-5.261,10.433c-20.351,35.884-58.901,60.11-103.104,60.11s-82.753-24.225-103.104-60.11
			c-1.902-3.377-3.661-6.861-5.243-10.433c-1.12-2.506-2.133-5.066-3.057-7.66c-2.275-6.238-4.035-12.726-5.208-19.409
			c-1.209-6.772-1.831-13.721-1.831-20.831c0-1.493,0.036-2.986,0.089-4.461h236.706
			C368.406,207.557,368.442,209.049,368.442,210.542z"/>

        <linearGradient id="SVGID_00000093896769220060638970000006075011559739243393_" gradientUnits="userSpaceOnUse"
                        x1="253.021" y1="216.6315" x2="291.8296" y2="294.9181">
			<stop offset="0" style="stop-color:#55FDE3"/>
            <stop offset="1" style="stop-color:#1274BF"/>
		</linearGradient>

        <path style="clip-path:url(#SVGID_00000075152227571845854620000005680657186151450005_);fill:url(#SVGID_00000093896769220060638970000006075011559739243393_);"
              d="
			M368.442,210.542c0,7.109-0.622,14.059-1.831,20.831c-1.671,9.455-4.479,18.538-8.247,27.069
			c-1.582,3.572-3.341,7.056-5.261,10.433c-20.351,35.884-58.901,60.11-103.104,60.11s-82.753-24.225-103.104-60.11
			c-1.902-3.377-3.661-6.861-5.243-10.433c-1.12-2.506-2.133-5.066-3.057-7.66c28.696,7.66,69.178,18.093,119.696,7.66
			c68.259-14.097,98.775-60.057,98.544-99.105C364.265,174.835,368.442,192.2,368.442,210.542z"/>
        <path style="clip-path:url(#SVGID_00000075152227571845854620000005680657186151450005_);fill:#FFFFFF;" d="M358.365,258.442
			c-1.582,3.572-3.341,7.056-5.261,10.433c-20.351,35.884-58.901,60.11-103.104,60.11s-82.753-24.225-103.104-60.11
			c-1.902-3.377-3.661-6.861-5.243-10.433c26.127,16.263,64.98,29.61,108.347,29.61
			C293.385,288.052,332.238,274.704,358.365,258.442z"/>

        <linearGradient id="SVGID_00000162318755825172357230000015118917930344913332_" gradientUnits="userSpaceOnUse"
                        x1="256.9695" y1="250.7543" x2="230.2048" y2="320.3423">
			<stop offset="0" style="stop-color:#55FDE3"/>
            <stop offset="1" style="stop-color:#1274BF"/>
		</linearGradient>

        <path style="clip-path:url(#SVGID_00000075152227571845854620000005680657186151450005_);fill:url(#SVGID_00000162318755825172357230000015118917930344913332_);"
              d="
			M353.104,268.875c-20.351,35.884-58.901,60.11-103.104,60.11s-82.753-24.225-103.104-60.11
			c25.949,14.823,62.545,26.482,103.104,26.482S327.154,283.698,353.104,268.875z"/>
        <g style="clip-path:url(#SVGID_00000075152227571845854620000005680657186151450005_);">
			<g>
				<g>
					<g>
						<g>
							<path style="fill:#4D4D4D;" d="M175.58,235.126l14.343-2.132c0,0-0.383,1.89-2.379-4.356l-7.626-0.108l7.315-0.924
								c-0.849-2.803-1.699-6.063-2.389-9.712l-5.705-0.09l5.552-0.718c-0.568-3.06-1.013-6.365-1.25-9.857l-6.208-0.085l6.16-0.793
								c-0.207-3.291-0.221-6.736,0.007-10.311l-5.903-0.878l5.953,0.04c0.272-3.624,0.788-7.361,1.628-11.184l-2.573-0.963
								l2.67,0.562c0.606-2.704,1.367-5.451,2.347-8.214l-2.623-1.872l2.779,1.42c0.807-2.325,1.77-4.678,2.875-7.024l-2.755-1.956
								l2.959,1.517c0.587-1.239,1.221-2.481,1.902-3.727l-1.61-1.142l1.749,0.896c0.528-0.967,1.087-1.936,1.662-2.907
								l-2.174-1.542l2.386,1.212c2.012-3.294,4.354-6.596,7.044-9.861l0.016-0.001c0.143-0.199,0.303-0.384,0.477-0.585
								c0.016-0.001,0.014-0.017,0.014-0.017c0.073-0.084,0.13-0.167,0.217-0.268c0.29-0.336,0.58-0.687,0.887-1.009
								c0.028-0.049,0.041-0.082,0.072-0.1c0.029-0.034,0.042-0.066,0.073-0.084c0.029-0.034,0.042-0.066,0.074-0.068
								c0.173-0.217,0.333-0.402,0.507-0.604c0.088-0.085,0.161-0.169,0.248-0.27l0.16-0.185c0.015-0.017,0.03-0.018,0.03-0.018
								c0.131-0.151,0.276-0.319,0.424-0.456c0.042-0.066,0.071-0.1,0.117-0.119c0.015-0.017,0.015-0.017,0.015-0.017
								c0.45-0.521,0.918-1.011,1.386-1.502c2.092-2.182,4.36-4.346,6.817-6.492c-0.259,0.113-2.007,0.98-4.637,2.697
								c-0.016,0.001-0.03,0.018-0.03,0.018c-0.631,0.408-1.322,0.867-2.04,1.391c-0.959,0.668-2.005,1.436-3.091,2.302
								c-0.014,0.017-0.014,0.017-0.014,0.017c-0.092,0.038-0.15,0.105-0.239,0.175c-0.03,0.018-0.045,0.035-0.058,0.067
								l-0.016,0.001c-0.03,0.018-0.075,0.053-0.105,0.07c-0.267,0.224-0.551,0.434-0.817,0.673
								c-0.179,0.139-0.342,0.277-0.52,0.431c-0.016,0.001-0.016,0.001-0.03,0.018l-0.016,0.001
								c-0.074,0.068-0.148,0.137-0.221,0.205c-0.016,0.001-0.03,0.018-0.045,0.035c-0.059,0.052-0.118,0.103-0.178,0.154
								c-0.016,0.001-0.016,0.001-0.03,0.018l-0.016,0.001c-0.341,0.292-0.666,0.583-1.006,0.892
								C185.792,160.452,166.035,187.322,175.58,235.126z"/>
						</g>
                        <g>
							<path style="fill:#4D4D4D;" d="M197.658,154.218c0.161,2.217,2.089,3.885,4.306,3.724c2.217-0.161,3.885-2.089,3.724-4.306
								c-0.161-2.217-2.089-3.884-4.306-3.723C199.164,150.072,197.497,152,197.658,154.218z"/>
                            <g>
								<path style="fill:#4D4D4D;" d="M198.152,147.773c0.161,2.217,2.089,3.884,4.306,3.724c2.217-0.161,3.885-2.089,3.724-4.306
									c-0.161-2.217-2.089-3.884-4.306-3.724C199.658,143.628,197.991,145.556,198.152,147.773z"/>
                                <path style="fill:#4D4D4D;" d="M191.741,150.611c0.161,2.217,2.089,3.885,4.306,3.724c2.217-0.161,3.884-2.089,3.723-4.306
									c-0.161-2.217-2.089-3.884-4.306-3.723C193.247,146.466,191.58,148.394,191.741,150.611z"/>
                                <path style="fill:#4D4D4D;" d="M202.56,151.49c0.161,2.217,2.089,3.885,4.306,3.724c2.217-0.161,3.884-2.089,3.724-4.306
									c-0.161-2.217-2.089-3.885-4.306-3.724C204.066,147.344,202.399,149.272,202.56,151.49z"/>
							</g>
						</g>
					</g>
                    <g>
						<path style="fill:#4D4D4D;" d="M209.335,189.349c12.984-5.204,16.123-21.532,13.602-28.14
							c-6.102-15.994-23.515-13.588-23.515-13.588l0.063,1.749c6.182,3.668,10.897,18.098,10.897,18.098l-0.824-5.329
							c2.25,3.358,3.263,8.101,3.275,11.736c0.682-1.439,0.992-2.656,1.563-3.671c-0.056,5.894-3.655,13.794-3.655,13.794
							c1.16-0.191,2.856-2.665,2.813-2.946C213.092,184.333,209.335,189.349,209.335,189.349z"/>
                        <path style="fill:#4D4D4D;" d="M191.633,170.703c7.152,2.664,14.411-2.775,15.818-6.367
							c3.406-8.696-4.506-14.115-4.506-14.115l-0.616,0.729c1.149,3.749-2.243,11.305-2.243,11.305l1.623-2.453
							c-0.324,2.181-1.656,4.468-2.985,5.939c0.803-0.331,1.375-0.708,1.978-0.909c-2.186,2.359-6.538,4.227-6.538,4.227
							c0.538,0.349,2.131-0.028,2.217-0.157C194.991,170.057,191.633,170.703,191.633,170.703z"/>
                        <path style="fill:#4D4D4D;" d="M236.772,179.798c9.166-12.731,2.64-26.604-5.099-30.946
							c-19.841-11.132-29.68-1.278-29.68-1.278l0.856,1.24c7.07-0.455,19.763,8.832,19.763,8.832l-4.062-4.117
							c4.284,1.628,8.404,5.273,10.884,8.628c-0.244-1.718-0.739-3.012-0.811-4.254c4.066,5.558,5.728,15.419,5.728,15.419
							c1.224-0.799,1.351-4.253,1.089-4.517C237.402,172.453,236.772,179.798,236.772,179.798z"/>
                        <path style="fill:#4D4D4D;" d="M165.024,166.788c-4.571-13.221,5.712-26.286,12.356-28.709
							c16.083-5.864,25.669,8.87,25.669,8.87l-1.363,1.098c-6.821-2.269-20.814,3.619-20.814,3.619l4.566-2.868
							c-4.011,0.499-8.259,2.84-11.014,5.212c0.641-1.458,1.357-2.49,1.751-3.585c-4.418,3.902-8.03,11.796-8.03,11.796
							c-0.616-1.002,0.143-3.904,0.383-4.055C166.354,160.662,165.024,166.788,165.024,166.788z"/>
                        <path style="fill:#4D4D4D;" d="M180.311,116.72c11.739-4.942,24.223,3.621,26.82,9.513
							c6.288,14.262-6.528,23.851-6.528,23.851l-1.079-1.173c1.654-6.332-4.53-18.694-4.53-18.694l2.878,3.978
							c-0.693-3.614-3.073-7.334-5.392-9.695c1.363,0.495,2.343,1.085,3.362,1.377c-3.809-3.781-11.196-6.592-11.196-6.592
							c0.874-0.619,3.556-0.103,3.707,0.106C185.956,117.563,180.311,116.72,180.311,116.72z"/>
                        <path style="fill:#4D4D4D;" d="M157.819,141.174c6.177-16.717,20.919-19.462,28.1-16.853
							c22.005,7.993,17.6,25.414,17.6,25.414l-1.928,0.082c-3.839-7.394-19.6-11.965-19.6-11.965l5.851,0.54
							c-3.629-2.505-8.828-3.336-12.837-3.016c1.611-0.986,2.964-1.485,4.103-2.292c-6.504,0.611-15.34,5.839-15.34,5.839
							c0.25-1.469,3.036-3.818,3.344-3.79C163.48,136.013,157.819,141.174,157.819,141.174z"/>
                        <path style="fill:#4D4D4D;" d="M232.297,138.451c-13.386-11.171-25.492-1.203-28.452,4.103c-5.2,9.32,0.89,16.725,0.89,16.725
							l0.808-0.32c-0.847-4.035,5.5-11.122,5.5-11.122l-3.075,2.322c1.021-2.673,3.819-5.246,6.641-6.817
							c-1.512,0.068-2.616,0.345-3.68,0.316c4.746-2.695,14.325-3.482,14.325-3.482c-0.801-1.052-4.284-1.319-4.542-1.118
							C224.409,137.589,232.297,138.451,232.297,138.451z"/>
					</g>
				</g>
			</g>
		</g>
        <g style="clip-path:url(#SVGID_00000075152227571845854620000005680657186151450005_);">
			<g>
				<g>
					<g>
						<g>
							<path style="fill:#4D4D4D;" d="M196.539,235.866l10.005-1.487c0,0-0.267,1.319-1.659-3.038l-5.32-0.075l5.103-0.645
								c-0.592-1.955-1.185-4.229-1.667-6.775l-3.979-0.063l3.873-0.501c-0.396-2.134-0.706-4.44-0.872-6.876l-4.331-0.059
								l4.297-0.553c-0.145-2.296-0.154-4.699,0.005-7.193l-4.118-0.613l4.153,0.028c0.19-2.528,0.55-5.135,1.136-7.802
								l-1.795-0.671l1.862,0.392c0.423-1.886,0.954-3.803,1.638-5.73l-1.83-1.306l1.939,0.99c0.563-1.622,1.235-3.263,2.005-4.9
								l-1.922-1.365l2.064,1.058c0.409-0.864,0.852-1.731,1.327-2.6l-1.123-0.797l1.22,0.625c0.368-0.675,0.759-1.351,1.16-2.028
								l-1.516-1.076l1.665,0.846c1.404-2.298,3.037-4.601,4.914-6.879l0.011-0.001c0.1-0.139,0.211-0.268,0.333-0.408
								c0.011-0.001,0.01-0.012,0.01-0.012c0.051-0.059,0.09-0.116,0.151-0.187c0.203-0.234,0.404-0.479,0.619-0.704
								c0.019-0.034,0.029-0.057,0.05-0.07c0.02-0.023,0.03-0.046,0.051-0.059c0.02-0.023,0.03-0.046,0.051-0.048
								c0.121-0.151,0.232-0.28,0.354-0.421c0.061-0.059,0.112-0.118,0.173-0.188l0.112-0.129c0.01-0.012,0.021-0.013,0.021-0.013
								c0.091-0.105,0.192-0.223,0.295-0.318c0.03-0.046,0.05-0.069,0.082-0.083c0.01-0.012,0.01-0.012,0.01-0.012
								c0.314-0.363,0.641-0.705,0.967-1.047c1.46-1.522,3.041-3.032,4.755-4.529c-0.181,0.079-1.4,0.684-3.234,1.882
								c-0.011,0.001-0.021,0.012-0.021,0.012c-0.44,0.285-0.922,0.605-1.423,0.971c-0.669,0.466-1.398,1.002-2.156,1.606
								c-0.01,0.012-0.01,0.012-0.01,0.012c-0.064,0.026-0.105,0.073-0.167,0.122c-0.021,0.012-0.031,0.024-0.041,0.047
								l-0.011,0.001c-0.021,0.012-0.052,0.037-0.073,0.049c-0.186,0.156-0.384,0.302-0.57,0.469
								c-0.125,0.097-0.239,0.193-0.363,0.301c-0.011,0.001-0.011,0.001-0.021,0.013l-0.011,0.001
								c-0.052,0.048-0.103,0.095-0.155,0.143c-0.011,0.001-0.021,0.012-0.031,0.024c-0.041,0.036-0.083,0.072-0.124,0.108
								c-0.011,0.001-0.011,0.001-0.021,0.013l-0.011,0.001c-0.238,0.204-0.465,0.407-0.702,0.622
								C203.663,183.774,189.881,202.518,196.539,235.866z"/>
						</g>
                        <g>
							<path style="fill:#4D4D4D;" d="M211.941,179.426c0.112,1.547,1.457,2.71,3.004,2.598c1.547-0.112,2.71-1.457,2.598-3.004
								c-0.112-1.547-1.457-2.71-3.004-2.598C212.992,176.534,211.828,177.879,211.941,179.426z"/>
                            <g>
								<path style="fill:#4D4D4D;" d="M212.285,174.93c0.112,1.547,1.457,2.71,3.004,2.598c1.547-0.112,2.71-1.457,2.597-3.004
									c-0.112-1.547-1.457-2.71-3.004-2.598C213.336,172.038,212.173,173.383,212.285,174.93z"/>
                                <path style="fill:#4D4D4D;" d="M207.813,176.91c0.112,1.547,1.457,2.71,3.004,2.598c1.547-0.112,2.71-1.457,2.598-3.004
									c-0.112-1.547-1.457-2.71-3.004-2.598C208.864,174.018,207.701,175.363,207.813,176.91z"/>
                                <path style="fill:#4D4D4D;" d="M215.36,177.523c0.112,1.547,1.457,2.71,3.004,2.597c1.547-0.112,2.71-1.457,2.598-3.004
									c-0.112-1.547-1.457-2.71-3.004-2.598C216.41,174.631,215.248,175.976,215.36,177.523z"/>
							</g>
						</g>
					</g>
                    <g>
						<path style="fill:#4D4D4D;" d="M220.086,203.933c9.057-3.631,11.247-15.021,9.488-19.63
							c-4.257-11.157-16.404-9.479-16.404-9.479l0.044,1.22c4.312,2.559,7.602,12.625,7.602,12.625l-0.574-3.717
							c1.569,2.343,2.276,5.651,2.284,8.187c0.476-1.004,0.692-1.853,1.09-2.561c-0.039,4.111-2.549,9.622-2.549,9.622
							c0.81-0.133,1.993-1.859,1.963-2.055C222.707,200.433,220.086,203.933,220.086,203.933z"/>
                        <path style="fill:#4D4D4D;" d="M207.737,190.926c4.989,1.859,10.053-1.936,11.034-4.442c2.376-6.066-3.143-9.847-3.143-9.847
							l-0.43,0.509c0.802,2.615-1.565,7.886-1.565,7.886l1.132-1.711c-0.226,1.521-1.155,3.117-2.083,4.143
							c0.561-0.231,0.96-0.494,1.38-0.634c-1.525,1.645-4.561,2.949-4.561,2.949c0.376,0.243,1.487-0.019,1.546-0.109
							C210.08,190.475,207.737,190.926,207.737,190.926z"/>
                        <path style="fill:#4D4D4D;" d="M239.226,197.27c6.394-8.881,1.841-18.558-3.557-21.587
							c-13.84-7.766-20.704-0.892-20.704-0.892l0.597,0.865c4.932-0.317,13.786,6.161,13.786,6.161l-2.834-2.872
							c2.988,1.135,5.863,3.678,7.592,6.019c-0.17-1.198-0.516-2.101-0.566-2.968c2.836,3.877,3.995,10.756,3.995,10.756
							c0.854-0.558,0.942-2.967,0.759-3.151C239.665,192.146,239.226,197.27,239.226,197.27z"/>
                        <path style="fill:#4D4D4D;" d="M189.176,188.194c-3.189-9.222,3.984-18.337,8.619-20.027
							c11.219-4.091,17.907,6.188,17.907,6.188l-0.951,0.766c-4.758-1.583-14.519,2.524-14.519,2.524l3.185-2
							c-2.798,0.348-5.762,1.981-7.683,3.636c0.447-1.017,0.947-1.737,1.222-2.501c-3.082,2.722-5.602,8.229-5.602,8.229
							c-0.429-0.699,0.1-2.723,0.267-2.829C190.103,183.921,189.176,188.194,189.176,188.194z"/>
                        <path style="fill:#4D4D4D;" d="M199.839,153.268c8.189-3.447,16.898,2.526,18.709,6.636
							c4.386,9.949-4.554,16.638-4.554,16.638l-0.753-0.818c1.154-4.417-3.16-13.041-3.16-13.041l2.008,2.775
							c-0.483-2.521-2.144-5.116-3.762-6.763c0.951,0.346,1.634,0.757,2.345,0.961c-2.657-2.638-7.81-4.599-7.81-4.599
							c0.609-0.432,2.48-0.072,2.586,0.074C203.777,153.856,199.839,153.268,199.839,153.268z"/>
                        <path style="fill:#4D4D4D;" d="M184.15,170.327c4.309-11.662,14.593-13.576,19.602-11.756
							c15.35,5.576,12.277,17.729,12.277,17.729l-1.345,0.057c-2.678-5.158-13.673-8.346-13.673-8.346l4.081,0.377
							c-2.531-1.747-6.158-2.327-8.955-2.104c1.124-0.687,2.067-1.036,2.862-1.599c-4.537,0.427-10.701,4.073-10.701,4.073
							c0.174-1.025,2.118-2.663,2.333-2.644C188.098,166.726,184.15,170.327,184.15,170.327z"/>
                        <path style="fill:#4D4D4D;" d="M236.104,168.427c-9.338-7.793-17.783-0.839-19.848,2.862
							c-3.627,6.501,0.621,11.667,0.621,11.667l0.563-0.223c-0.591-2.815,3.837-7.759,3.837-7.759l-2.145,1.62
							c0.712-1.865,2.664-3.66,4.633-4.755c-1.055,0.048-1.825,0.241-2.567,0.22c3.311-1.88,9.993-2.429,9.993-2.429
							c-0.559-0.734-2.988-0.92-3.169-0.78C230.601,167.826,236.104,168.427,236.104,168.427z"/>
					</g>
				</g>
			</g>
		</g>
        <path style="clip-path:url(#SVGID_00000075152227571845854620000005680657186151450005_);fill:#4D4D4D;" d="M135.185,239.962
			c0,0,29.299-33.714,71.55-18.954c31.985,11.174,67.998,28.883,96.889,12.485C303.625,233.493,236.211,279.16,135.185,239.962z"/>
	</g>
</g>
</svg>
